<svg xmlns="http://www.w3.org/2000/svg" width="20" height="20" viewBox="0 0 20 20" fill="none">
  <path d="M19.7994 8.47175L19.6993 8.04719H10.4715V11.9528H15.985C15.4126 14.671 12.7564 16.1018 10.5866 16.1018C9.00794 16.1018 7.3438 15.4378 6.24234 14.3704C5.66121 13.7983 5.19864 13.1171 4.8811 12.366C4.56356 11.6148 4.3973 10.8084 4.39182 9.9929C4.39182 8.34779 5.13115 6.70225 6.20693 5.61982C7.28271 4.5374 8.90745 3.93178 10.5229 3.93178C12.373 3.93178 13.6989 4.91415 14.1947 5.36217L16.9701 2.60144C16.1559 1.88602 13.9193 0.083313 10.4335 0.083313C7.74401 0.083313 5.16523 1.1135 3.28018 2.99235C1.41992 4.84243 0.457031 7.51771 0.457031 9.99998C0.457031 12.4822 1.36813 15.0238 3.17083 16.8885C5.09706 18.8772 7.82503 19.9166 10.634 19.9166C13.1898 19.9166 15.6123 18.9152 17.3388 17.0984C19.0362 15.3098 19.9141 12.8351 19.9141 10.2408C19.9141 9.14865 19.8043 8.50008 19.7994 8.47175Z" fill="#242424"/>
</svg>