<svg width="93" height="26" viewBox="0 0 93 26" fill="none" xmlns="http://www.w3.org/2000/svg">
<path d="M6.32034 20.3151C5.14787 20.3151 3.98456 20.2036 2.83041 19.9807C1.67626 19.7578 0.732793 19.4605 0 19.089V15.3548C0.970951 15.8378 1.97854 16.2001 3.02277 16.4416C4.067 16.6831 5.06543 16.8039 6.01806 16.8039C7.08061 16.8039 7.88668 16.6181 8.43628 16.2465C8.98587 15.875 9.26067 15.3548 9.26067 14.686C9.26067 14.2029 9.12327 13.7942 8.84847 13.4598C8.57368 13.1254 8.17064 12.8282 7.63937 12.5681C7.12641 12.2894 6.3295 11.9271 5.24863 11.4812C3.45329 10.7381 2.15258 9.9114 1.34651 9.00107C0.540435 8.07217 0.137399 6.92962 0.137399 5.57342C0.137399 4.47731 0.430516 3.51125 1.01675 2.67524C1.60298 1.82065 2.42738 1.16113 3.48993 0.696678C4.55248 0.232226 5.7799 0 7.17221 0C8.30804 0 9.31563 0.0928902 10.195 0.278671C11.0743 0.464452 11.9354 0.752412 12.7781 1.14255V4.76527C11.1659 3.94784 9.55379 3.53912 7.94164 3.53912C6.91573 3.53912 6.10966 3.7249 5.52343 4.09646C4.93719 4.44945 4.64407 4.96034 4.64407 5.62915C4.64407 6.11218 4.78147 6.51161 5.05627 6.82744C5.33107 7.14327 5.71578 7.42194 6.21042 7.66345C6.70506 7.90497 7.51113 8.25795 8.62864 8.7224C9.92934 9.27974 10.9461 9.81851 11.6789 10.3387C12.4117 10.8403 12.9521 11.4441 13.3002 12.1501C13.6483 12.8374 13.8223 13.692 13.8223 14.7138C13.8223 16.4787 13.1903 17.8535 11.9262 18.8382C10.6805 19.8228 8.81184 20.3151 6.32034 20.3151Z" fill="#242424"/>
<path d="M16.168 6.5209H20.18V7.99786C21.5173 6.73455 23.1661 6.10289 25.1264 6.10289C26.5003 6.10289 27.7094 6.40014 28.7537 6.99464C29.8162 7.57056 30.6406 8.39729 31.2269 9.47481C31.8131 10.5338 32.1062 11.7692 32.1062 13.1811C32.1062 14.5745 31.8131 15.8099 31.2269 16.8875C30.6406 17.965 29.8162 18.8103 28.7537 19.4234C27.7094 20.0179 26.5003 20.3151 25.1264 20.3151C24.192 20.3151 23.3035 20.1758 22.4608 19.8971C21.6181 19.6184 20.9036 19.219 20.3174 18.6988V26H16.168V6.5209ZM24.0821 17.0268C25.1996 17.0268 26.1065 16.6738 26.8026 15.9678C27.5171 15.2619 27.8743 14.333 27.8743 13.1811C27.8743 12.0293 27.5171 11.1097 26.8026 10.4223C26.1065 9.73491 25.1996 9.39121 24.0821 9.39121C23.2211 9.39121 22.4517 9.62344 21.7738 10.0879C21.096 10.5523 20.6105 11.1654 20.3174 11.9271V14.463C20.5922 15.2433 21.0685 15.8657 21.7463 16.3301C22.4425 16.7946 23.2211 17.0268 24.0821 17.0268Z" fill="#242424"/>
<path d="M39.3619 20.3151C37.7498 20.3151 36.4308 19.9064 35.4048 19.089C34.3973 18.2529 33.8935 17.1197 33.8935 15.6892C33.8935 14.2029 34.3789 13.0511 35.3499 12.2337C36.3208 11.3976 37.6948 10.9796 39.4718 10.9796C40.2596 10.9796 41.0107 11.0632 41.7252 11.2304C42.4397 11.3976 43.0717 11.6299 43.6213 11.9271V11.5927C43.6213 10.7567 43.3282 10.1436 42.7419 9.75348C42.1557 9.36334 41.258 9.16827 40.0489 9.16827C38.4368 9.16827 36.9529 9.47481 35.5972 10.0879V7.02251C36.1834 6.76242 36.9437 6.54877 37.878 6.38157C38.8123 6.19578 39.7466 6.10289 40.681 6.10289C43.0625 6.10289 44.8396 6.6045 46.012 7.60772C47.1845 8.59235 47.7707 9.97642 47.7707 11.7599V19.8971H43.8686V18.671C42.7511 19.7671 41.2489 20.3151 39.3619 20.3151ZM40.4886 17.5284C41.1664 17.5284 41.7801 17.3984 42.3297 17.1383C42.8793 16.8782 43.3098 16.5159 43.6213 16.0514V14.7138C42.687 14.0822 41.6611 13.7663 40.5436 13.7663C39.7741 13.7663 39.1787 13.9335 38.7574 14.268C38.3543 14.5838 38.1528 15.0575 38.1528 15.6892C38.1528 16.2837 38.3543 16.7388 38.7574 17.0547C39.1604 17.3705 39.7375 17.5284 40.4886 17.5284Z" fill="#242424"/>
<path d="M57.2356 20.3151C54.854 20.3151 52.9579 19.702 51.5473 18.4759C50.1366 17.2312 49.4313 15.4848 49.4313 13.2369C49.4313 10.9889 50.1366 9.24259 51.5473 7.99786C52.9762 6.73455 54.8815 6.10289 57.263 6.10289C59.4248 6.10289 61.1468 6.51161 62.4292 7.32905V10.6452C61.843 10.2179 61.156 9.90211 60.3682 9.69775C59.5988 9.49339 58.7836 9.39121 57.9226 9.39121C56.6402 9.39121 55.6143 9.70704 54.8448 10.3387C54.0754 10.9703 53.6907 11.9364 53.6907 13.2369C53.6907 14.5373 54.0662 15.5034 54.8173 16.135C55.5868 16.7481 56.6127 17.0547 57.8951 17.0547C59.6721 17.0547 61.2384 16.6181 62.5941 15.7449V19.0332C61.2384 19.8878 59.4523 20.3151 57.2356 20.3151Z" fill="#242424"/>
<path d="M72.486 20.3151C69.9578 20.3151 67.9701 19.702 66.5229 18.4759C65.0756 17.2312 64.352 15.4941 64.352 13.2647C64.352 11.0539 64.9931 9.30761 66.2755 8.02572C67.5762 6.74384 69.4265 6.10289 71.8264 6.10289C73.4019 6.10289 74.7393 6.40014 75.8385 6.99464C76.9377 7.58914 77.7712 8.41586 78.3391 9.47481C78.9071 10.5152 79.191 11.6949 79.191 13.0139V14.7138H68.309C68.6021 16.423 70.1777 17.2776 73.0355 17.2776C73.8783 17.2776 74.7485 17.2033 75.6461 17.0547C76.5438 16.906 77.3224 16.7017 77.9819 16.4416V19.3955C77.3407 19.6742 76.5163 19.8971 75.5087 20.0643C74.5011 20.2315 73.4935 20.3151 72.486 20.3151ZM75.2614 11.9829C75.2065 11.0911 74.8767 10.4037 74.2721 9.92069C73.6676 9.41908 72.834 9.16827 71.7715 9.16827C70.7272 9.16827 69.9029 9.41908 69.2983 9.92069C68.6937 10.4223 68.364 11.1097 68.309 11.9829H75.2614Z" fill="#242424"/>
<path d="M86.8995 20.3151C85.9102 20.3151 84.8477 20.2036 83.7119 19.9807C82.5943 19.7763 81.715 19.4791 81.0738 19.089V15.8006C81.8066 16.2465 82.6859 16.6088 83.7119 16.8875C84.7378 17.1661 85.6904 17.3055 86.5697 17.3055C87.3209 17.3055 87.8705 17.2404 88.2185 17.1104C88.5666 16.9804 88.7406 16.7388 88.7406 16.3859C88.7406 16.1072 88.6399 15.8842 88.4384 15.717C88.2368 15.5313 87.9254 15.3733 87.5041 15.2433C87.101 15.0947 86.4232 14.881 85.4706 14.6024C84.353 14.268 83.4737 13.9335 82.8325 13.5991C82.2096 13.2462 81.7333 12.8096 81.4036 12.2894C81.0921 11.7692 80.9364 11.1004 80.9364 10.283C80.9364 8.8896 81.4768 7.84923 82.5577 7.16184C83.6569 6.45588 85.1408 6.10289 87.0094 6.10289C87.9254 6.10289 88.8689 6.20507 89.8398 6.40943C90.8291 6.59521 91.5894 6.84602 92.1207 7.16184V10.3666C91.5894 10.0136 90.8932 9.72562 90.0322 9.50268C89.1895 9.27974 88.3651 9.16827 87.559 9.16827C86.8079 9.16827 86.2217 9.24259 85.8003 9.39121C85.3973 9.53984 85.1958 9.81851 85.1958 10.2272C85.1958 10.5802 85.3881 10.8496 85.7728 11.0354C86.1759 11.2212 86.9178 11.4534 87.9987 11.732L88.5483 11.8714C89.7024 12.1872 90.6001 12.5402 91.2413 12.9303C91.8825 13.3019 92.3313 13.7571 92.5878 14.2958C92.8626 14.816 93 15.4755 93 16.2744C93 17.5005 92.4779 18.4852 91.4337 19.2283C90.3894 19.9528 88.878 20.3151 86.8995 20.3151Z" fill="#242424"/>
</svg>
