<svg xmlns="http://www.w3.org/2000/svg" viewBox="0 0 495 137" fill="none">
  <path d="M33.6405 107.045C27.4 107.045 21.2081 106.458 15.0651 105.283C8.92205 104.108 3.90035 102.542 0 100.584V80.9078C5.16796 83.453 10.5309 85.3619 16.0889 86.6345C21.6469 87.9071 26.9612 88.5434 32.0316 88.5434C37.6871 88.5434 41.9775 87.5645 44.9028 85.6066C47.828 83.6488 49.2907 80.9078 49.2907 77.3837C49.2907 74.8385 48.5593 72.6849 47.0967 70.9228C45.6341 69.1608 43.4889 67.5945 40.6611 66.224C37.9309 64.7556 33.6893 62.8467 27.9363 60.4973C18.3804 56.5816 11.4573 52.2254 7.16689 47.4287C2.87651 42.5341 0.731315 36.5138 0.731315 29.3676C0.731315 23.592 2.29146 18.5016 5.41174 14.0965C8.53201 9.59343 12.9199 6.11826 18.5754 3.67096C24.2309 1.22365 30.764 0 38.1747 0C44.2202 0 49.5832 0.48946 54.2636 1.46838C58.944 2.44731 63.5269 3.96463 68.0123 6.02037V25.1093C59.4316 20.8021 50.8508 18.6485 42.27 18.6485C36.8095 18.6485 32.5192 19.6274 29.3989 21.5852C26.2786 23.4452 24.7185 26.1372 24.7185 29.6613C24.7185 32.2065 25.4498 34.3112 26.9124 35.9754C28.375 37.6395 30.4227 39.1079 33.0555 40.3805C35.6882 41.6531 39.9786 43.513 45.9266 45.9603C52.8497 48.8971 58.2615 51.736 62.1618 54.477C66.0622 57.12 68.9387 60.3015 70.7913 64.0214C72.644 67.6434 73.5703 72.1465 73.5703 77.5305C73.5703 86.8303 70.2063 94.0743 63.4782 99.2626C56.8476 104.451 46.9017 107.045 33.6405 107.045Z" fill="#F5F3FF"/>
  <path d="M86.0553 34.3601H107.41V42.1426C114.528 35.4859 123.304 32.1576 133.737 32.1576C141.05 32.1576 147.486 33.7238 153.044 36.8564C158.699 39.891 163.087 44.2472 166.207 49.925C169.328 55.5048 170.888 62.0147 170.888 69.4545C170.888 76.7964 169.328 83.3062 166.207 88.9839C163.087 94.6617 158.699 99.1158 153.044 102.346C147.486 105.479 141.05 107.045 133.737 107.045C128.764 107.045 124.035 106.311 119.55 104.842C115.064 103.374 111.261 101.269 108.141 98.5284V137H86.0553V34.3601ZM128.179 89.7181C134.127 89.7181 138.954 87.8582 142.659 84.1383C146.462 80.4184 148.363 75.5238 148.363 69.4545C148.363 63.3851 146.462 58.5395 142.659 54.9175C138.954 51.2955 134.127 49.4845 128.179 49.4845C123.596 49.4845 119.501 50.7081 115.893 53.1554C112.285 55.6027 109.701 58.8332 108.141 62.8467V76.209C109.604 80.3205 112.139 83.5999 115.747 86.0472C119.452 88.4945 123.596 89.7181 128.179 89.7181Z" fill="#F5F3FF"/>
  <path d="M209.507 107.045C200.926 107.045 193.906 104.891 188.445 100.584C183.082 96.179 180.401 90.2076 180.401 82.6699C180.401 74.8385 182.985 68.7692 188.153 64.462C193.321 60.0568 200.634 57.8542 210.092 57.8542C214.285 57.8542 218.283 58.2948 222.086 59.1758C225.888 60.0568 229.253 61.2805 232.178 62.8467V61.0847C232.178 56.6795 230.618 53.4491 227.497 51.3934C224.377 49.3376 219.599 48.3098 213.164 48.3098C204.583 48.3098 196.685 49.925 189.469 53.1554V37.0032C192.589 35.6327 196.636 34.507 201.609 33.6259C206.582 32.647 211.555 32.1576 216.528 32.1576C229.204 32.1576 238.662 34.8006 244.903 40.0868C251.143 45.2751 254.264 52.5681 254.264 61.9657V104.842H233.494V98.3816C227.546 104.157 219.55 107.045 209.507 107.045ZM215.504 92.3612C219.112 92.3612 222.378 91.676 225.303 90.3055C228.229 88.935 230.52 87.0261 232.178 84.5788V77.5305C227.205 74.2022 221.744 72.538 215.796 72.538C211.701 72.538 208.532 73.4191 206.289 75.1811C204.144 76.8453 203.071 79.3416 203.071 82.6699C203.071 85.8024 204.144 88.2008 206.289 89.865C208.434 91.5291 211.506 92.3612 215.504 92.3612Z" fill="#F5F3FF"/>
  <path d="M304.641 107.045C291.965 107.045 281.873 103.815 274.364 97.3537C266.856 90.7949 263.102 81.5931 263.102 69.7481C263.102 57.9032 266.856 48.7013 274.364 42.1426C281.97 35.4859 292.111 32.1576 304.787 32.1576C316.293 32.1576 325.459 34.3112 332.285 38.6184V56.0922C329.164 53.8407 325.508 52.1765 321.315 51.0997C317.22 50.0229 312.88 49.4845 308.297 49.4845C301.472 49.4845 296.011 51.1486 291.916 54.477C287.821 57.8053 285.773 62.8957 285.773 69.7481C285.773 76.6006 287.772 81.691 291.77 85.0193C295.865 88.2497 301.326 89.865 308.151 89.865C317.61 89.865 325.947 87.5645 333.162 82.9636V100.29C325.947 104.794 316.439 107.045 304.641 107.045Z" fill="#F5F3FF"/>
  <path d="M385.812 107.045C372.356 107.045 361.776 103.815 354.073 97.3537C346.37 90.7949 342.518 81.642 342.518 69.895C342.518 58.2458 345.931 49.0439 352.757 42.2894C359.68 35.5348 369.528 32.1576 382.302 32.1576C390.688 32.1576 397.806 33.7238 403.656 36.8564C409.507 39.9889 413.944 44.3451 416.966 49.925C419.989 55.4069 421.501 61.6231 421.501 68.5734V77.5305H363.58C365.14 86.5366 373.526 91.0397 388.738 91.0397C393.223 91.0397 397.855 90.6481 402.633 89.865C407.41 89.0818 411.555 88.005 415.065 86.6345V102.199C411.652 103.668 407.264 104.842 401.901 105.723C396.538 106.605 391.175 107.045 385.812 107.045ZM400.585 63.1404C400.292 58.4416 398.537 54.8196 395.319 52.2744C392.102 49.6313 387.665 48.3098 382.009 48.3098C376.451 48.3098 372.064 49.6313 368.846 52.2744C365.628 54.9175 363.873 58.5395 363.58 63.1404H400.585Z" fill="#F5F3FF"/>
  <path d="M462.53 107.045C457.264 107.045 451.609 106.458 445.563 105.283C439.615 104.206 434.935 102.64 431.522 100.584V83.2572C435.422 85.6067 440.103 87.5155 445.563 88.9839C451.024 90.4523 456.094 91.1865 460.774 91.1865C464.772 91.1865 467.698 90.8439 469.55 90.1586C471.403 89.4734 472.329 88.2008 472.329 86.3408C472.329 84.8725 471.793 83.6978 470.72 82.8167C469.648 81.8378 467.99 81.0057 465.747 80.3205C463.602 79.5373 459.994 78.4116 454.924 76.9432C448.976 75.1811 444.295 73.4191 440.883 71.657C437.567 69.7971 435.032 67.4966 433.277 64.7556C431.619 62.0146 430.79 58.4905 430.79 54.1833C430.79 46.8414 433.667 41.3594 439.42 37.7374C445.271 34.0175 453.169 32.1576 463.115 32.1576C467.99 32.1576 473.012 32.696 478.18 33.7728C483.445 34.7517 487.492 36.0732 490.32 37.7374V54.6238C487.492 52.7638 483.786 51.2465 479.204 50.0718C474.718 48.8971 470.33 48.3098 466.04 48.3098C462.042 48.3098 458.922 48.7013 456.679 49.4845C454.534 50.2676 453.461 51.736 453.461 53.8896C453.461 55.7496 454.485 57.169 456.533 58.1479C458.678 59.1268 462.627 60.3505 468.38 61.8189L471.305 62.5531C477.448 64.2172 482.226 66.0772 485.639 68.1329C489.052 70.0908 491.441 72.4891 492.806 75.328C494.269 78.069 495 81.5441 495 85.7535C495 92.2144 492.221 97.4026 486.663 101.318C481.105 105.136 473.061 107.045 462.53 107.045Z" fill="#F5F3FF"/>
</svg>